<svg xmlns="http://www.w3.org/2000/svg" width="512" height="512" viewBox="0 0 512 512" version="1.1">
	<path d="M 232.500 9.060 C 186.339 13.848, 141.167 31.769, 104.567 59.814 C 71.030 85.511, 41.855 124.154, 26.118 163.720 C -0.639 230.991, 2.711 304.948, 35.394 368.500 C 48.100 393.207, 61.459 411.544, 80.958 431.042 C 100.456 450.541, 118.793 463.900, 143.500 476.606 C 229.562 520.865, 332.180 510.692, 409.874 450.199 C 428.588 435.627, 450.102 411.804, 464.235 390 C 511.227 317.506, 516.656 225.549, 478.553 147.500 C 442.514 73.680, 373.058 22.947, 291 10.506 C 278.364 8.590, 244.985 7.765, 232.500 9.060 M 227.500 30.426 C 206.507 33.473, 189.632 37.855, 172.500 44.706 C 159.214 50.020, 141.239 59.410, 131.015 66.378 L 123.500 71.500 129.500 72.061 C 132.800 72.369, 136.625 73.141, 138 73.777 C 139.375 74.412, 142.361 75.401, 144.635 75.974 C 147.394 76.669, 148.944 77.678, 149.292 79.008 C 149.750 80.761, 150.663 81, 156.906 81 C 160.808 81, 164 80.745, 164 80.434 C 164 80.123, 163.534 78.998, 162.965 77.934 C 162.119 76.354, 160.839 76, 155.965 76 C 150.096 76, 148.990 75.410, 151.033 73.367 C 153.383 71.017, 150.919 69.100, 145.161 68.797 L 139.500 68.500 146.127 63.750 C 152.287 59.335, 153.181 59, 158.815 59 C 164.853 59, 164.888 59.017, 168.107 63.500 C 171.220 67.834, 171.530 68, 176.495 68 C 180.702 68, 182.084 67.540, 184 65.500 C 186.463 62.878, 189.414 62.243, 190.556 64.090 C 190.926 64.690, 189.512 66.940, 187.412 69.090 C 183.911 72.675, 183.149 73, 178.237 73 L 172.879 73 173.190 76.750 L 173.500 80.500 180.331 80.798 C 186.441 81.064, 187.217 80.885, 187.682 79.108 C 188.076 77.602, 189.450 76.923, 193.351 76.306 C 197.984 75.573, 198.532 75.216, 198.816 72.746 C 199.091 70.366, 198.781 70, 196.499 70 C 194.233 70, 193.960 69.686, 194.545 67.750 C 194.919 66.513, 195.648 65.050, 196.165 64.500 C 197.250 63.346, 212.462 63.127, 213.584 64.250 C 213.996 64.662, 212.676 66.462, 210.651 68.250 C 207.365 71.150, 207.058 71.823, 207.801 74.500 C 208.541 77.167, 209.113 77.535, 212.954 77.814 L 217.275 78.128 216.607 73.096 L 215.940 68.064 220.720 65.672 C 223.553 64.254, 228.328 62.999, 232.443 62.592 C 239.193 61.924, 239.685 62.036, 250.193 66.629 L 261 71.353 261 75.552 C 261 79.416, 261.238 79.798, 264 80.350 C 267.355 81.021, 267.745 82.491, 265.443 85.777 C 264.200 87.553, 262.914 88, 259.052 88 C 254.882 88, 254.134 88.310, 253.617 90.250 C 252.320 95.116, 251.992 95.191, 241.927 92.910 C 236.742 91.734, 232.128 90.430, 231.674 90.010 C 231.220 89.591, 234.111 87.493, 238.099 85.348 C 242.088 83.202, 245.470 81.009, 245.616 80.474 C 245.762 79.938, 244.631 78.514, 243.104 77.309 C 240.506 75.260, 239.850 75.184, 232.913 76.132 C 226.965 76.945, 224.907 77.703, 222.500 79.969 C 220.850 81.522, 218.037 83.100, 216.250 83.476 C 213.111 84.136, 211.941 86.228, 214 87.500 C 215.809 88.618, 215.044 90, 212.617 90 C 211.074 90, 210.049 90.706, 209.710 92 C 209.355 93.358, 208.346 94, 206.569 94 C 204.443 94, 203.834 93.419, 203.333 90.915 C 202.748 87.992, 202.527 87.864, 199.108 88.473 C 195.625 89.093, 176.880 98.848, 174.174 101.449 C 173.146 102.437, 173.084 103.600, 173.901 106.632 C 175.181 111.387, 178.634 113.677, 186.142 114.753 L 191.500 115.520 191.798 121.760 C 192.080 127.675, 192.226 128, 194.603 128 C 196.672 128, 197.523 127.065, 199.474 122.654 C 201.768 117.467, 202.018 117.259, 207.919 115.603 L 214 113.897 214 106.067 C 214 98.357, 214.051 98.198, 217.358 95.676 C 220.615 93.192, 220.876 93.155, 226.108 94.455 C 229.073 95.192, 232.751 96.078, 234.281 96.424 C 236.984 97.036, 237.043 97.194, 236.402 102.027 C 235.754 106.911, 235.790 107, 238.404 107 C 239.869 107, 243.287 105.875, 246 104.500 C 248.713 103.125, 251.152 102, 251.419 102 C 251.686 102, 252.039 104.798, 252.202 108.217 C 252.494 114.313, 252.584 114.490, 256.803 117.318 C 260.829 120.018, 261.086 120.464, 260.803 124.268 C 260.531 127.922, 260.146 128.451, 257 129.505 C 251.753 131.262, 252.070 133.347, 257.956 135.793 C 262.457 137.663, 263 138.218, 263 140.945 C 263 144.609, 262.394 144.674, 253.605 141.960 C 247.915 140.202, 247 139.594, 247 137.567 C 247 136.273, 247.675 134.955, 248.500 134.638 C 249.325 134.322, 250 132.924, 250 131.531 C 250 129.667, 249.473 129, 248 129 C 246.900 129, 246 129.623, 246 130.383 C 246 131.955, 243.003 132.966, 238.285 132.986 C 236.056 132.996, 234.733 132.370, 233.971 130.946 C 233.082 129.285, 232.069 128.950, 228.686 129.196 C 224.980 129.465, 224.500 129.784, 224.500 131.976 C 224.500 133.842, 225.239 134.694, 227.500 135.436 C 231.577 136.773, 231.553 136.732, 229.550 138.945 C 227.916 140.751, 227.597 140.782, 225.411 139.350 C 223.142 137.863, 222.835 137.980, 218.066 142.149 C 215.329 144.542, 213.070 147.040, 213.045 147.701 C 213.020 148.362, 209.963 150.569, 206.250 152.606 C 202.537 154.644, 198.207 157.478, 196.626 158.905 C 190.945 164.034, 184 173.126, 184 175.434 C 184 177.213, 182.403 178.799, 177.254 182.133 C 173.544 184.535, 168.791 188.040, 166.693 189.922 C 162.919 193.306, 162.879 193.419, 163.098 200.167 C 163.220 203.919, 163.121 207.104, 162.877 207.245 C 162.634 207.385, 160.560 206.655, 158.269 205.621 C 154.465 203.906, 154.076 203.384, 153.801 199.621 L 153.500 195.500 141.112 195.218 L 128.725 194.936 121.013 198.555 C 113.420 202.118, 113.247 202.283, 109.709 209.337 C 104.855 219.014, 104.396 221.896, 106.921 226.845 C 108.832 230.590, 109.318 230.896, 114.377 231.528 C 119.671 232.189, 119.951 232.094, 127.305 227.132 C 131.439 224.342, 135.384 221.934, 136.072 221.780 C 138.614 221.211, 138.769 226.341, 136.339 230.588 C 135.053 232.836, 134 235.136, 134 235.698 C 134 236.261, 136.813 237.121, 140.250 237.610 L 146.500 238.500 147.262 248.429 C 147.681 253.889, 148.233 258.566, 148.488 258.822 C 148.744 259.077, 152.676 259.936, 157.226 260.730 L 165.500 262.173 171.554 255.526 L 177.608 248.878 184.398 250.129 C 190.200 251.198, 191.556 251.862, 193.713 254.690 C 196.112 257.836, 196.558 258, 202.712 258 C 208.346 258, 209.255 257.740, 209.710 256 C 210.338 253.599, 210.130 253.618, 214.263 255.589 C 216.453 256.633, 218.914 259.335, 221.445 263.472 L 225.295 269.767 232.994 270.439 L 240.694 271.111 243.088 275.305 C 244.547 277.861, 245.682 281.798, 245.991 285.381 L 246.500 291.262 253.984 294.131 C 260.452 296.611, 262.847 297, 271.629 297 L 281.792 297 284.965 301.945 C 287.299 305.583, 289.111 307.201, 291.819 308.066 C 293.844 308.713, 295.843 309.553, 296.263 309.933 C 297.927 311.444, 295.447 317.560, 290.545 324.030 L 285.384 330.843 284.081 344.417 L 282.778 357.992 277.931 361.551 C 273.289 364.958, 272.835 365.081, 267.193 364.442 L 261.302 363.776 258.980 367.532 C 256.797 371.065, 256.731 371.637, 257.878 377.188 C 258.548 380.433, 259.320 383.671, 259.593 384.383 C 259.867 385.095, 256.545 390.201, 252.211 395.731 C 247.878 401.260, 243.742 407.209, 243.020 408.951 C 241.441 412.765, 232.424 417.774, 224 419.519 C 217.497 420.865, 215.842 423.618, 220.925 424.635 C 224.819 425.414, 225.071 428.645, 221.500 432 C 220.125 433.292, 219 434.920, 219 435.618 C 219 437.430, 223.019 440, 225.854 440 C 228.134 440, 228.225 440.228, 227.547 444.250 C 225.701 455.204, 225.490 454.193, 230.487 458.347 C 233.799 461.101, 235.026 462.806, 234.807 464.347 C 234.532 466.275, 233.789 466.531, 227.687 466.797 L 220.874 467.094 213.970 460.973 C 208.841 456.426, 205.735 452.527, 201.891 445.810 L 196.717 436.768 197.359 427.725 L 198.001 418.683 194.032 413.426 L 190.064 408.170 191.530 399.835 C 193.347 389.515, 193.385 390.257, 191 389.500 C 189.094 388.895, 189 387.987, 189 370.124 C 189 356.652, 188.649 350.932, 187.750 349.780 C 185.499 346.894, 174.725 340.003, 170.820 338.952 C 167.514 338.061, 167 337.535, 167 335.038 C 167 332.126, 165.093 329.246, 154.300 315.854 C 148.985 309.261, 148.951 309.174, 149.947 304.854 C 150.499 302.459, 150.962 297.928, 150.976 294.784 L 151 289.069 157.054 284.799 L 163.109 280.530 162.431 274.015 C 162.059 270.432, 161.598 267.228, 161.408 266.895 C 161.217 266.562, 157.347 266.035, 152.808 265.724 L 144.555 265.159 137.028 257.074 C 129.675 249.177, 129.332 248.950, 122.250 247.301 C 115.373 245.700, 115 245.469, 115 242.807 C 115 241.235, 114.450 239.994, 113.750 239.986 C 113.063 239.979, 111.487 239.701, 110.250 239.370 C 108.553 238.915, 108 239.191, 108 240.492 C 108 241.766, 107.413 242.083, 105.750 241.703 C 104.513 241.420, 100.012 240.388, 95.748 239.411 L 87.996 237.633 83.829 231.238 C 79.747 224.972, 79.695 224.786, 81.302 222.066 C 82.929 219.311, 82.894 219.221, 76.835 210.395 C 71.059 201.981, 70.122 199.758, 68.560 190.750 C 68.077 187.964, 67.422 187, 66.014 187 C 63.337 187, 63.132 187.759, 64.039 194.310 C 64.625 198.538, 65.955 201.826, 68.922 206.380 C 71.608 210.502, 73 213.768, 73 215.945 C 73 219.113, 72.871 219.224, 69.875 218.625 C 68.156 218.281, 66.399 218, 65.970 218 C 65.541 218, 63.122 214.473, 60.595 210.162 C 56.060 202.426, 56 202.208, 56 193.361 L 56 184.399 51.500 182.212 L 47 180.026 47 174.313 C 47 171.031, 46.632 169.004, 46.135 169.550 C 43.082 172.901, 34.969 200.246, 31.796 217.882 C 29.825 228.835, 29.525 233.866, 29.524 256 C 29.521 284.169, 30.906 295.441, 37.028 317.086 C 54.370 378.393, 97.387 430.590, 153.974 458.987 C 185.424 474.769, 213.863 481.832, 249.602 482.737 C 279.613 483.496, 299.931 480.649, 326.169 472.006 C 356.462 462.027, 381.923 447.448, 406.520 425.999 C 416.272 417.495, 431 401.845, 431 399.987 C 431 399.444, 429.650 399, 428 399 L 425 399 425 391.674 C 425 384.548, 424.878 384.187, 420.527 378.424 L 416.053 372.500 416.027 363.621 C 416 354.894, 415.940 354.676, 412.500 350.868 C 407.723 345.581, 407.854 342.133, 413.210 332.182 L 417.420 324.360 409.416 310.242 L 401.412 296.124 402.314 287.003 C 402.810 281.987, 403.008 277.674, 402.753 277.420 C 402.499 277.166, 399.296 276.597, 395.636 276.156 C 390.443 275.531, 388.366 274.766, 386.185 272.678 C 382.451 269.100, 376.226 268.978, 371.683 272.393 C 368.764 274.587, 367.385 274.815, 355.062 275.143 L 341.625 275.500 330.693 263.130 L 319.761 250.760 320.470 241.630 C 321.020 234.553, 321.609 232.098, 323.090 230.711 C 324.140 229.727, 325 227.590, 325 225.961 C 325 223.526, 324.586 223, 322.668 223 C 320.882 223, 320.089 222.195, 319.282 219.567 C 318.024 215.467, 317.840 215.665, 332.706 205.116 L 342.911 197.874 343.206 191.226 L 343.500 184.577 349.357 181.289 C 354.610 178.339, 356.031 178, 363.146 178 C 368.955 178, 372.074 177.493, 374.790 176.108 C 376.967 174.998, 381.806 173.948, 386.500 173.567 C 390.900 173.210, 396.637 172.669, 399.250 172.365 L 404 171.812 404 178.368 L 404 184.923 407.750 185.901 C 409.813 186.439, 414.398 187.616, 417.941 188.516 C 421.483 189.417, 425.295 190.794, 426.413 191.577 C 430.014 194.099, 432 193.406, 432 189.625 C 432 186.645, 432.366 186.177, 435.125 185.625 C 441.733 184.303, 444.378 184.924, 449.500 189 L 454.500 192.979 463.691 192.989 C 468.746 192.995, 473.123 192.610, 473.417 192.134 C 473.712 191.658, 472.687 187.495, 471.140 182.884 L 468.327 174.500 462.413 174.196 C 454.719 173.801, 450.509 170.206, 449.738 163.372 C 449.120 157.888, 448.889 157.638, 445.749 159.069 C 443.798 159.957, 442.849 161.654, 441.487 166.684 L 439.735 173.157 435.368 168.870 C 431.529 165.103, 431 164.054, 431 160.206 C 431 156.169, 430.553 155.410, 425.250 150.436 C 419.977 145.491, 419.106 145.042, 414.750 145.022 C 409.564 144.998, 409.311 145.414, 411.424 150.473 C 412.394 152.794, 414.230 154.586, 417.174 156.086 C 424.483 159.808, 426.215 161.185, 425.051 162.349 C 424.473 162.927, 424 164.892, 424 166.716 C 424 169.496, 423.456 170.292, 420.637 171.636 C 417.720 173.027, 416.891 173.057, 414.399 171.862 C 412.818 171.105, 411.375 169.711, 411.193 168.764 C 410.921 167.352, 411.539 167.085, 414.642 167.272 C 421.338 167.676, 420.075 164.917, 410.625 158.498 C 404.881 154.597, 401.949 151.933, 401.521 150.228 L 400.890 147.714 397.506 150.995 C 394.487 153.921, 393.695 154.207, 390.177 153.644 L 386.232 153.013 380.590 160.509 C 377.487 164.632, 374.545 169.066, 374.052 170.362 C 373.035 173.039, 369.694 174, 361.409 174 C 356.662 174, 349.010 171.574, 348.994 170.065 C 348.991 169.754, 348.556 166.861, 348.028 163.635 C 347.014 157.442, 348.280 152.874, 351.335 151.702 C 354.967 150.308, 361.955 149.966, 366.383 150.966 C 369.068 151.572, 371.394 151.939, 371.551 151.782 C 371.709 151.625, 372.146 150.266, 372.523 148.763 C 373.101 146.461, 372.818 145.881, 370.726 145.086 C 368.472 144.229, 368.309 143.781, 368.955 140.244 C 369.981 134.635, 370.448 134.213, 376.446 133.464 C 381.656 132.813, 382.013 132.568, 385.939 126.971 C 390.556 120.389, 392.404 119.620, 402.295 120.161 L 408.500 120.500 408.151 115.500 C 407.959 112.750, 407.690 110.382, 407.554 110.237 C 407.418 110.092, 405.677 110.655, 403.686 111.487 C 398.643 113.594, 398.241 113.475, 396.258 109.291 C 395.128 106.905, 393.607 105.374, 392 105.001 C 390.181 104.579, 389.411 103.654, 389.174 101.606 C 388.740 97.872, 391.793 94.722, 398.473 92.011 C 401.762 90.676, 404.144 88.980, 404.823 87.490 C 405.838 85.261, 405.338 84.651, 397.205 78.182 C 384.238 67.869, 371.882 60.107, 355.857 52.206 C 335.202 42.022, 317.149 36.160, 291.500 31.307 C 280.484 29.223, 239.658 28.661, 227.500 30.426 M 125 82.895 C 123.423 83.333, 122.500 84.312, 122.500 85.545 C 122.500 87.209, 123.314 87.546, 127.970 87.810 C 133.524 88.125, 136 86.737, 136 83.309 C 136 81.887, 129.501 81.643, 125 82.895 M 128 95.319 C 121.886 96.923, 122.754 98.500, 129.750 98.500 C 134.820 98.500, 135.500 98.265, 135.500 96.514 C 135.500 94.066, 133.805 93.796, 128 95.319 M 421.600 103.366 C 421.285 104.540, 421.021 106.873, 421.014 108.551 C 421.002 111.171, 420.365 111.910, 416.500 113.788 C 409.234 117.318, 410.456 119, 420.284 119 C 428.457 119, 428.593 118.959, 430.368 115.954 C 432.378 112.552, 432.465 112.756, 425.865 105.366 C 422.447 101.539, 422.130 101.390, 421.600 103.366 M 366.121 105.082 C 359.673 106.453, 359.063 111.690, 364.901 115.553 C 370.019 118.940, 370.798 121.666, 366.892 122.524 C 364.283 123.097, 364 123.555, 364 127.211 L 364 131.263 371.639 130.773 C 378.200 130.352, 379.538 129.945, 381.117 127.891 C 383.516 124.771, 383.460 124.154, 380.719 123.466 C 377.919 122.763, 372.419 114.756, 371.469 110 C 370.423 104.760, 369.899 104.278, 366.121 105.082 M 353.828 116.037 C 351.502 117.394, 348 123.302, 348 125.868 C 348 129.160, 353.016 128.652, 358.471 124.807 C 361.937 122.364, 363 120.981, 363 118.914 C 363 115.205, 357.962 113.624, 353.828 116.037 M 146.250 119.199 C 143.589 120.508, 143.509 121.151, 145.526 125.050 C 147.259 128.402, 147.047 128.313, 150.342 127.060 C 151.959 126.445, 153.053 125.036, 153.503 122.988 C 153.881 121.266, 154.034 119.701, 153.843 119.510 C 152.768 118.434, 148.185 118.247, 146.250 119.199 M 160.183 136.612 C 157.962 137.582, 156.974 138.630, 157.194 139.780 C 157.470 141.223, 158.931 141.547, 166.261 141.789 C 174.483 142.061, 175 141.957, 175 140.039 C 175 138.918, 174.550 138, 174 138 C 173.450 138, 173 137.325, 173 136.500 C 173 134.519, 164.811 134.591, 160.183 136.612 M 61.771 138.250 C 60.968 139.488, 59.769 141.625, 59.107 143 C 58.154 144.978, 58.539 144.777, 60.951 142.038 C 62.628 140.134, 64 137.996, 64 137.288 C 64 135.442, 63.433 135.687, 61.771 138.250 M 177.710 140 C 177.998 141.100, 178.856 142, 179.617 142 C 181.319 142, 181.397 140.797, 179.800 139.200 C 178.008 137.408, 177.121 137.748, 177.710 140 M 236.242 143.968 C 235.431 145.277, 233.919 146, 231.992 146 C 228.701 146, 228.176 147.319, 230.530 149.672 C 232.492 151.635, 237.029 150.606, 237.698 148.047 C 237.966 147.023, 239.091 145.948, 240.198 145.659 C 241.305 145.369, 242.016 144.540, 241.777 143.816 C 241.070 141.669, 237.606 141.764, 236.242 143.968 M 159.026 147.250 C 156.763 149.642, 156.024 151.290, 156.226 153.492 C 156.666 158.290, 159.288 157.730, 163.441 151.950 C 168.655 144.692, 168.804 144, 165.158 144 C 163.007 144, 161.190 144.963, 159.026 147.250 M 174 147.940 L 174 152.006 177.250 150.680 C 179.660 149.696, 180.500 148.726, 180.500 146.927 C 180.500 144.920, 179.938 144.446, 177.250 144.187 C 174.065 143.880, 174 143.954, 174 147.940 M 186.570 144.887 C 186.269 145.374, 186.652 146.296, 187.422 146.935 C 188.981 148.229, 190.577 146.742, 189.500 145 C 188.735 143.762, 187.300 143.706, 186.570 144.887 M 221.213 147.188 C 219.626 148.774, 219.651 152.004, 221.250 151.985 C 223.504 151.957, 225.203 150.294, 224.848 148.463 C 224.408 146.189, 222.782 145.618, 221.213 147.188 M 183 151.800 C 183 154.509, 185.023 156, 188.700 156 C 191.347 156, 192 155.599, 192 153.975 C 192 152.722, 191.023 151.579, 189.435 150.975 C 185.441 149.457, 183 149.770, 183 151.800 M 457.708 153.625 C 457.319 154.015, 457 156.508, 457 159.167 C 457 163.870, 457.080 164, 460 164 C 461.757 164, 462.981 163.482, 462.955 162.750 C 462.876 160.583, 458.450 152.883, 457.708 153.625 M 174 155 C 174 155.550, 173.100 156, 172 156 C 170.900 156, 170 156.413, 170 156.918 C 170 157.423, 169.727 158.548, 169.393 159.418 C 168.903 160.694, 169.541 161, 172.693 161 C 177.144 161, 179 159.617, 179 156.300 C 179 154.513, 178.442 154, 176.500 154 C 175.125 154, 174 154.450, 174 155" stroke="none" fill="black" fill-rule="evenodd"/>
</svg>